Coordinates
version=1
nRows=17
nColumns=36
inDegrees=yes

Units are S.I. units (second, meters, Newtons, ...)
If the header above contains a line with 'inDegrees', this indicates whether rotational values are in degrees (yes) or radians (no).

endheader
time	pelvis_tilt	pelvis_list	pelvis_rotation	pelvis_tx	pelvis_ty	pelvis_tz	hip_flexion_r	hip_adduction_r	hip_rotation_r	knee_angle_r	knee_angle_r_beta	ankle_angle_r	subtalar_angle_r	mtp_angle_r	hip_flexion_l	hip_adduction_l	hip_rotation_l	knee_angle_l	knee_angle_l_beta	ankle_angle_l	subtalar_angle_l	mtp_angle_l	lumbar_extension	lumbar_bending	lumbar_rotation	arm_flex_r	arm_add_r	arm_rot_r	elbow_flex_r	pro_sup_r	arm_flex_l	arm_add_l	arm_rot_l	elbow_flex_l	pro_sup_l
      4.93750000	     -0.97442146	     -4.13615040	      2.99230423	     -0.46387901	      1.00999906	     -0.15515104	     19.27649407	     -5.14551795	     -3.89068732	     27.60446825	      0.48178886	      0.76413189	    -16.26598012	     -7.49999987	     -3.64202824	     -0.60243601	      7.71730100	      7.86735830	      0.13731131	     13.58790533	     -7.74384188	     -7.49999987	     -7.76437326	      5.66142339	     -9.34155967	    -20.85831648	     -2.06331617	     10.18745138	    113.18183156	     87.28751588	    -22.77239555	    -18.55144042	     12.43744971	    112.84968055	     82.06479961
      4.94166670	     -0.92882601	     -3.96306053	      3.14242090	     -0.46966853	      1.00965481	     -0.15893416	     18.98253702	     -5.35179874	     -3.63619392	     27.50097966	      0.47998264	      1.67371627	    -15.18038543	     -7.49999987	     -3.74052362	     -0.33676857	      8.23736236	      7.58411477	      0.13236777	     13.54226688	     -8.09257354	     -7.49999987	     -7.66055110	      5.57456567	     -8.79627395	    -21.11733014	     -1.92586715	      9.78623956	    113.33213234	     87.45107457	    -21.90116324	    -19.03710188	     13.32207750	    112.51923700	     82.47138237
      4.94583330	     -0.85336325	     -3.74425329	      3.35461495	     -0.46942338	      1.00996618	     -0.15918239	     18.55904166	     -5.48209951	     -3.37850119	     27.25672792	      0.47571965	      2.03914587	    -14.95240269	     -7.49999987	     -3.82927028	     -0.09479009	      8.65922496	      7.47707567	      0.13049959	     13.59457553	     -8.31160467	     -7.49999987	     -7.52570287	      5.36201601	     -8.37934486	    -21.26937678	     -1.69493483	      9.12534300	    113.27860136	     86.82885636	    -21.14275820	    -19.44348033	     14.10698991	    112.19008221	     82.17980330
      4.95000000	     -0.83815291	     -3.52007866	      3.54924097	     -0.46978310	      1.01337227	     -0.15878008	     18.22063435	     -5.64393888	     -3.11031782	     26.97215217	      0.47075286	      2.63281806	    -14.58511514	     -7.49999987	     -3.96248867	      0.13372039	      8.78909314	      7.20009275	      0.12566532	     13.46445773	     -8.09713752	     -7.49999987	     -7.46175579	      5.16872227	     -8.25688490	    -21.27411617	     -1.53780931	      8.67228310	    112.91056085	     85.80542198	    -20.65989771	    -19.74848493	     14.21728393	    111.73717451	     81.40905356
      4.95416670	     -0.75343143	     -3.32321598	      3.66757226	     -0.46930687	      1.00927076	     -0.15895976	     17.92024840	     -5.75666155	     -2.84182667	     26.94613412	      0.47029876	      3.45023174	    -14.19031271	     -7.49999987	     -4.14232236	      0.35566071	      9.05144561	      7.04772566	      0.12300602	     13.54376254	     -8.25782191	     -7.49999987	     -7.48795785	      5.02748470	     -7.59218776	    -21.72711517	     -1.10635975	      7.61081055	    113.07777839	     87.94369567	    -19.63704903	    -20.24891778	     14.89284603	    111.25901135	     83.58046446
      4.95833330	     -0.73579961	     -3.17722878	      3.66028819	     -0.46965120	      1.00905510	     -0.15837786	     17.69623317	     -5.84669584	     -2.94957641	     26.88991594	      0.46931757	      4.26914406	    -13.51139354	     -7.49999987	     -4.18910373	      0.52170864	      9.11345798	      6.97644934	      0.12176201	     13.63527636	     -8.20659327	     -7.49999987	     -7.47794338	      4.79527899	     -7.62706391	    -21.66849203	     -1.05955627	      7.58311922	    112.98920856	     88.43317511	    -19.65915321	    -20.27489131	     14.90828687	    111.44015265	     84.05142177
      4.96250000	     -0.67605915	     -3.13311348	      3.50417444	     -0.46937642	      1.00909071	     -0.15848928	     17.51608212	     -5.87409629	     -2.91761370	     26.83431673	      0.46834718	      4.95042928	    -12.96566621	     -7.49999987	     -4.42386347	      0.59031836	      9.08432110	      6.78427650	      0.11840796	     13.75451203	     -8.39779612	     -7.49999987	     -7.49407846	      4.73422981	     -7.27161024	    -21.62051540	     -0.91586384	      7.48970250	    113.06728620	     88.54511261	    -19.40071524	    -20.39596121	     15.34314317	    111.55963107	     84.31184388
      4.96666670	     -0.67635197	     -3.09215314	      3.42758134	     -0.46978890	      1.00866284	     -0.15788611	     17.34709133	     -5.86551040	     -2.89408722	     26.78322819	      0.46745552	      5.64889353	    -12.16142632	     -7.49999987	     -4.55924768	      0.65873959	      9.19392624	      6.66808106	      0.11637997	     13.69697364	     -8.71834113	     -7.49999987	     -7.36448710	      4.55772417	     -7.24163106	    -21.47293465	     -0.83555123	      7.66333264	    112.90492017	     88.32682352	    -19.29853051	    -20.41047138	     15.58962103	    111.44162540	     84.01512080
      4.97083330	     -0.65337129	     -3.08347478	      3.38996105	     -0.46952578	      1.00836406	     -0.15813308	     17.03938394	     -5.80892496	     -2.70800277	     26.32206171	      0.45940664	      6.17670426	    -11.92059960	     -7.49999987	     -4.83478121	      0.66610342	      9.07618488	      6.34606039	      0.11075965	     13.72338553	     -8.86440479	     -7.49999987	     -7.21025659	      4.47773778	     -6.90886378	    -21.24414435	     -0.88683080	      7.34106007	    112.82646742	     88.55994994	    -18.81756051	    -20.60714046	     15.84659760	    111.13012497	     84.36603594
      4.97500000	     -0.68867795	     -3.05620250	      3.35396088	     -0.47002640	      1.00779897	     -0.15747459	     16.82308149	     -5.74910767	     -2.48334944	     25.84869770	      0.45114488	      6.61084620	    -11.87245988	     -7.49999987	     -5.04058554	      0.71181419	      9.27330505	      5.98886776	      0.10452546	     13.68551521	     -9.06803313	     -7.49999987	     -6.93448210	      4.30760502	     -6.77352564	    -20.88827537	     -0.98195604	      7.30079428	    112.59596448	     88.38328935	    -18.58702137	    -20.72509032	     15.82774501	    110.96867979	     84.22893649
      4.97916670	     -0.62873456	     -3.03073767	      3.20815533	     -0.46987180	      1.00459523	     -0.15771372	     16.33177290	     -5.55273688	     -2.05677611	     25.11982136	      0.43842359	      6.96474152	    -12.01480841	     -7.49999987	     -5.38553047	      0.74001220	      9.46932494	      5.47803055	      0.09560967	     13.31272763	     -9.67499778	     -7.49999987	     -6.83417078	      4.14323312	     -6.51752131	    -20.87192385	     -0.96073207	      7.16276350	    112.77172315	     87.14423045	    -18.25302656	    -20.88315216	     16.07278354	    111.02884784	     83.35685662
      4.98333330	     -0.73356374	     -3.00641201	      3.12651900	     -0.47024490	      1.00442745	     -0.15720492	     15.90887064	     -5.39667331	     -1.55800127	     24.08099698	      0.42029268	      7.15112826	    -12.23543685	     -7.49999987	     -5.42335013	      0.76520617	      9.39798556	      5.24834689	      0.09160093	     13.30582315	     -9.84186856	     -7.49999987	     -6.58329598	      4.02421277	     -6.49877801	    -21.06016680	     -0.87759725	      7.25854306	    112.62635636	     86.56426972	    -18.12090386	    -20.93970849	     16.12409320	    111.00104652	     82.88257646
      4.98750000	     -0.76188180	     -2.92399532	      3.03427317	     -0.46974141	      1.00169286	     -0.15756780	     15.47957146	     -5.32366723	     -0.98472449	     23.16035908	      0.40422452	      7.31753335	    -12.57570383	     -7.49999987	     -5.63480264	      0.80463963	      9.21060649	      4.94049140	      0.08622784	     13.28845943	     -9.65259112	     -7.49999987	     -6.29062824	      3.81662401	     -6.42514043	    -21.06014587	     -0.95882239	      7.54414735	    112.47191320	     85.99062122	    -18.11488230	    -20.95023323	     16.52052550	    110.91343710	     82.51270655
      4.99166670	     -0.90523915	     -2.87725759	      3.05893423	     -0.47026576	      1.00489203	     -0.15753559	     15.03554940	     -5.26068696	     -0.30375212	     22.00566951	      0.38407139	      7.19823071	    -12.98454404	     -7.49999987	     -5.61324188	      0.81924539	      9.23390997	      4.69961363	      0.08202373	     13.10549914	     -9.57531859	     -7.49999987	     -5.90893918	      3.71250314	     -6.41442211	    -20.89466459	     -1.09585354	      7.45472420	    112.13605958	     85.74889844	    -17.99751049	    -20.99115168	     16.60094213	    110.59069873	     82.37706550
      4.99583330	     -0.92438483	     -2.83142540	      2.97000580	     -0.47010061	      1.00500928	     -0.15785738	     14.51875093	     -5.18295635	      0.32114530	     20.94283457	      0.36552142	      6.99815310	    -13.27853526	     -7.49999987	     -5.86883016	      0.80426112	      9.23994293	      4.22060825	      0.07366351	     12.85875456	     -9.58762033	     -7.49999987	     -5.76158640	      3.60570635	     -6.15498558	    -21.00366488	     -1.08392498	      7.35492244	    111.85352989	     88.17186039	    -17.88492855	    -20.98886992	     16.84651431	    110.26421842	     85.29145300
      5.00000000	     -0.88639307	     -2.77848166	      2.93345990	     -0.47073032	      1.00481169	     -0.15728141	     14.00236524	     -5.14189720	      0.76744561	     20.03505529	      0.34967768	      6.99026047	    -13.30014528	     -7.49999987	     -6.20882190	      0.83820931	      8.98278533	      3.72620053	      0.06503447	     12.81324654	     -9.45024817	     -7.49999987	     -5.55812114	      3.54834442	     -5.89583508	    -20.90172860	     -1.17305201	      7.19945853	    111.69770764	     87.62763433	    -17.95755063	    -20.81192835	     16.60372105	    110.10282386	     84.79777802
      5.00416670	     -0.98667080	     -2.70404460	      2.85955725	     -0.47034679	      1.00161507	     -0.15762689	     13.68691156	     -5.11908860	      1.27644381	     19.27200271	      0.33635990	      6.98033876	    -13.38582505	     -7.49999987	     -6.36080618	      0.93714432	      8.77828211	      3.27229487	      0.05711232	     12.80858280	     -9.17880671	     -7.49999987	     -5.27767030	      3.44697229	     -5.77988436	    -20.92936135	     -1.25092135	      7.08760525	    111.70694653	     87.47491959	    -17.89728203	    -20.55739724	     16.32537639	    109.94815160	     84.72508344
